<svg xmlns="http://www.w3.org/2000/svg" fill="none" viewBox="0 0 64 64" height="64" width="64">
<path fill="#F5C882" d="M62.664 17.1701C61.91 16.0327 60.3605 15.8782 59.4006 16.7654L53.782 21.9642C53.4655 22.2571 53.0042 22.3324 52.611 22.1554L47.8485 20.0123C47.3719 19.7979 46.8187 19.9657 46.5214 20.3953C45.446 21.9478 43.7611 22.7116 42.3733 22.1291C40.9378 21.5266 40.302 19.6887 40.7386 17.7631C40.8519 17.2638 40.6059 16.7532 40.1391 16.5431L34.9275 14.1978C33.0281 13.3431 30.806 13.6628 29.2245 15.0182L23.3427 20.0598C22.5299 20.7564 22.2524 21.9572 22.8089 22.8714C23.5185 24.0372 25.0619 24.2502 26.0538 23.399L32.0233 18.2826C32.3395 18.0114 32.7841 17.9474 33.1641 18.1184L35.6445 19.2346C36.7376 19.7264 37.2173 21.0172 36.7108 22.1036L28.2209 40.3096C27.9899 40.8046 27.4263 41.0491 26.9068 40.8749L18.3494 38.0278L16.8938 42.0733L26.3007 45.2005C26.8628 45.3879 27.4358 45.4776 28.001 45.4776C30.0389 45.4776 31.9666 44.3114 32.8704 42.3734L35.2689 37.6879L45.2241 41.8035C45.5201 41.9269 45.7436 42.173 45.8381 42.48L49.3761 53.4972H53.6755L49.7261 40.3386C49.2547 38.8073 48.1364 37.5749 46.6564 36.9576L41.3238 34.7358L45.417 25.958C45.914 24.8922 47.175 24.4237 48.2474 24.9062L50.8466 26.0759C51.5561 26.395 52.3077 26.5509 53.0541 26.5509C54.3799 26.5509 55.6867 26.0592 56.7021 25.1203L62.2393 19.9973C63.0242 19.2707 63.255 18.0613 62.664 17.1701Z"></path>
<path fill="#F5AF73" d="M28.6831 39.3179L28.2206 40.3095C27.9896 40.8045 27.426 41.049 26.9065 40.8747L28.4429 41.3676C29.403 41.6756 30.441 41.2121 30.8527 40.2919L30.8817 40.2269L28.6831 39.3179Z"></path>
<path fill="#D5DCED" d="M56.8997 57.7963H49.3757V53.4969H53.6751C55.456 53.4969 56.8996 54.9406 56.8996 56.7214V57.7963H56.8997Z"></path>
<path fill="#D5DCED" d="M11.7561 43.6516L14.3033 36.572L18.3488 38.0276L16.8932 42.0731C16.2902 43.7489 14.4431 44.6185 12.7674 44.0155L11.7561 43.6516Z"></path>
<path fill="#F5C882" d="M47.2261 15.8773C44.8516 15.8773 42.9268 13.9525 42.9268 11.578V9.42823C42.9268 7.64736 44.3704 6.20374 46.1513 6.20374H51.5255V11.578C51.5255 13.9523 49.6006 15.8773 47.2261 15.8773Z"></path>
<path fill="#7DD1F5" d="M45.4168 25.9579C45.9138 24.8921 47.1748 24.4236 48.2471 24.9061L48.9861 25.2386L50.8288 21.3532L47.8484 20.0121C47.3718 19.7977 46.8186 19.9654 46.5213 20.3951C45.4459 21.9476 43.761 22.7113 42.3732 22.1288C40.9377 21.5263 40.3019 19.6884 40.7385 17.7628C40.8518 17.2636 40.6058 16.753 40.139 16.5428L36.8304 15.0538L34.9882 18.9389L35.6443 19.2341C36.7374 19.7259 37.217 21.0167 36.7105 22.1031L32.5188 31.0921L41.325 34.7325L45.4168 25.9579Z"></path>
<path fill="#5B5D6E" d="M41.3248 34.733L32.5186 31.0927L28.6831 39.318L33.4296 41.2803L35.2685 37.6879L43.3715 41.0376L45.2414 36.368L41.3237 34.7358L41.3248 34.733Z"></path>
<path fill="#5B5D6E" d="M37.6763 20.0951L35.6443 19.2346C36.7374 19.7265 37.217 21.0172 36.7105 22.1036L32.5188 31.0926L34.5853 31.947L38.7105 22.7241C39.1629 21.7129 38.6964 20.5271 37.6763 20.0951Z" opacity="0.27"></path>
<path fill="#464655" d="M34.5852 31.9469L32.5186 31.0925L28.6831 39.3179L30.8816 40.2269L34.5852 31.9469Z"></path>
<path fill="#59ACCF" d="M36.7105 22.1035L32.5188 31.0925L34.5853 31.9468L38.7105 22.724C39.1629 21.7127 38.6964 20.527 37.6763 20.095L35.6443 19.2345C36.7374 19.7265 37.217 21.0172 36.7105 22.1035Z"></path>
<path fill="#F5AF73" d="M46.1513 11.5779V9.42823C46.1513 7.64736 47.5949 6.20374 49.3757 6.20374H46.1513C44.3704 6.20374 42.9268 7.64736 42.9268 9.42823V11.578C42.9268 13.9525 44.8516 15.8773 47.2261 15.8773C47.7971 15.8773 48.3397 15.7607 48.8384 15.5585C47.264 14.92 46.1513 13.3812 46.1513 11.5779Z"></path>
<path fill="#6E4848" d="M46.1513 6.20361C44.3704 6.20361 42.9268 7.64724 42.9268 9.42811V11.5779C42.9268 11.9512 42.9893 12.3072 43.0788 12.6527H45.0009C45.7196 12.6527 46.3907 12.2935 46.7895 11.6955L47.6629 10.3855C48.0615 9.78748 48.7327 9.42823 49.4515 9.42823H51.5255V6.20361H46.1513Z"></path>
<path fill="#643C3E" d="M42.9268 9.42823V11.578C42.9268 11.9513 42.9893 12.3073 43.0788 12.6528H45.0009C45.441 12.6528 45.8548 12.505 46.2075 12.2631C46.1716 12.0398 46.1514 11.8115 46.1514 11.578V9.42823C46.1514 7.64736 47.595 6.20374 49.3759 6.20374H46.1514C44.3704 6.20361 42.9268 7.64736 42.9268 9.42823Z"></path>
<path fill="black" d="M29.9614 28.775C29.9614 28.2185 29.5103 27.7673 28.9538 27.7673H1.00762C0.451124 27.7673 0 28.2185 0 28.775C0 29.3315 0.451124 29.7826 1.00762 29.7826H28.9537C29.5102 29.7826 29.9614 29.3315 29.9614 28.775Z"></path>
<path fill="black" d="M9.6065 25.4833L18.2052 25.4838C18.7617 25.4838 19.2129 25.0328 19.2129 24.4761C19.2129 23.9195 18.7619 23.4685 18.2052 23.4685L9.6065 23.468C9.05 23.468 8.59888 23.919 8.59888 24.4756C8.59888 25.0323 9.04988 25.4831 9.6065 25.4833Z"></path>
<path fill="black" d="M14.9806 21.1843L18.2054 21.1838C18.762 21.1838 19.213 20.7326 19.2129 20.1761C19.2129 19.6196 18.7618 19.1686 18.2053 19.1686H18.2051L14.9806 19.1691C14.424 19.1691 13.973 19.6203 13.9731 20.1768C13.973 20.7333 14.4241 21.1843 14.9806 21.1843Z"></path>
<path fill="black" d="M27.8117 33.0743C27.8117 32.5178 27.3606 32.0667 26.8041 32.0667H9.6065C9.05 32.0667 8.59888 32.5178 8.59888 33.0743C8.59888 33.6308 9.05 34.0819 9.6065 34.0819H26.8041C27.3606 34.082 27.8117 33.6308 27.8117 33.0743Z"></path>
<path fill="black" d="M3.15728 25.4833H5.30703C5.86353 25.4833 6.31465 25.0321 6.31465 24.4756C6.31465 23.9191 5.86353 23.468 5.30703 23.468H3.15728C2.60078 23.468 2.14966 23.9191 2.14966 24.4756C2.14966 25.0321 2.60078 25.4833 3.15728 25.4833Z"></path>
<path fill="black" d="M47.8338 25.8251L50.4332 26.995C51.2648 27.3688 52.1466 27.5586 53.0539 27.5586C54.6629 27.5586 56.2015 26.9555 57.3864 25.86L62.9237 20.737C64.0948 19.6535 64.3443 17.8808 63.5039 16.6135C62.9857 15.832 62.1599 15.3201 61.2384 15.2094C60.3174 15.0989 59.3979 15.3961 58.7164 16.026L53.0981 21.2246C53.0781 21.2431 53.0493 21.2477 53.0247 21.2367L48.2623 19.0936C47.3499 18.683 46.2697 18.9893 45.6932 19.8217C44.8692 21.0113 43.6644 21.5782 42.7634 21.2001C41.8267 20.807 41.3886 19.4552 41.7218 17.986C41.9406 17.0207 41.4491 16.0276 40.5531 15.6244L35.3412 13.279C33.0961 12.2687 30.4378 12.6512 28.569 14.2532L22.687 19.2948C21.4751 20.3336 21.1575 22.0966 21.9482 23.3956C22.4361 24.1968 23.2419 24.74 24.1592 24.8856C25.0759 25.0311 26.006 24.7682 26.7096 24.1642L32.6791 19.0477C32.6988 19.031 32.727 19.0268 32.7507 19.0373L35.2311 20.1536C35.5118 20.28 35.7257 20.5086 35.8328 20.7973C35.94 21.0861 35.9276 21.3987 35.7973 21.6777L27.3075 39.8833C27.2927 39.9149 27.2587 39.9302 27.2246 39.9186L14.6447 35.6238C14.1209 35.4353 13.5439 35.7071 13.3555 36.2308L10.8083 43.3104C10.7179 43.5619 10.7309 43.8389 10.8446 44.0808C10.9584 44.3225 11.1638 44.5093 11.4153 44.5997L12.4266 44.9635C12.8984 45.1333 13.3808 45.2137 13.8554 45.2137C15.2702 45.2137 16.6155 44.498 17.4004 43.299L25.9819 46.156C26.6365 46.3743 27.3157 46.4848 28.001 46.4848C30.4632 46.4848 32.7276 45.0454 33.7753 42.8162L35.7425 38.9734L44.8366 42.733C44.8562 42.7413 44.8688 42.7552 44.8766 42.7806L48.3682 53.926V57.7961C48.3682 58.3526 48.8193 58.8038 49.3758 58.8038H56.8998C57.4563 58.8038 57.9074 58.3526 57.9074 57.7961V56.7213C57.9074 54.6975 56.479 53.0018 54.5778 52.587L50.6889 40.0419C50.1292 38.2232 48.8007 36.7599 47.0437 36.0272L42.6806 34.2093L46.3299 26.3836C46.5927 25.8207 47.2672 25.5702 47.8338 25.8251ZM54.4665 22.7037L60.0847 17.5053C60.331 17.2776 60.663 17.1698 60.9979 17.21C61.3369 17.2508 61.6304 17.4342 61.8243 17.7268C62.1197 18.1722 62.0014 18.8446 61.555 19.2575L56.018 24.3802C55.2069 25.1302 54.1543 25.5431 53.0541 25.5431C52.4336 25.5431 51.8299 25.4132 51.2602 25.1568L50.3373 24.7416L51.3161 22.6776L52.1976 23.0743C52.9609 23.4178 53.8517 23.2725 54.4665 22.7037ZM31.3672 17.5175L25.3974 22.6343C25.1429 22.8527 24.8069 22.9477 24.4747 22.895C24.1377 22.8415 23.8517 22.6471 23.6694 22.3475C23.3911 21.8902 23.5354 21.2215 23.9981 20.8248L29.8801 15.7832C31.1588 14.687 32.9778 14.4255 34.5137 15.1167L35.4795 15.5514L34.5007 17.6152L33.577 17.1995C32.8446 16.8698 31.9772 16.9946 31.3672 17.5175ZM13.1088 43.0675L13.0455 43.0448L14.9105 37.8614L17.0596 38.6347L15.9451 41.7321C15.5315 42.8822 14.259 43.4813 13.1088 43.0675ZM31.9567 41.9474C31.2422 43.4798 29.6893 44.4699 28.0006 44.4699C27.5324 44.4699 27.0675 44.3942 26.6185 44.2443L18.1924 41.4391L18.9641 39.2943L26.586 41.8302C27.5904 42.1669 28.6855 41.6963 29.1337 40.7354L29.1888 40.6173L32.0345 41.7937L31.973 41.9139C31.9673 41.9251 31.962 41.9362 31.9567 41.9474ZM55.8922 56.7215V56.7886H50.3836V54.5047H53.6753C54.8977 54.5047 55.8922 55.4991 55.8922 56.7215ZM48.7636 40.6368L52.4377 52.4893H50.0299L46.8011 42.1833C46.6183 41.5894 46.1848 41.1118 45.6088 40.8718L44.6773 40.4867L45.7971 37.6908L46.2684 37.8872C47.4706 38.3889 48.3798 39.3903 48.7636 40.6368ZM44.5036 25.5321L40.8188 33.4336L36.8626 31.7981C36.3482 31.5857 35.7591 31.8301 35.5465 32.3443C35.3338 32.8587 35.5785 33.4479 36.0927 33.6604L43.9364 36.9159L42.8147 39.7168L35.6533 36.7564C35.1686 36.5559 34.6106 36.7613 34.3713 37.2286L32.9557 39.9941L30.0412 38.7892L37.6233 22.5296C37.9831 21.7578 38.0181 20.8933 37.7215 20.0953C37.461 19.3945 36.9732 18.822 36.3323 18.4562L37.3176 16.3789L39.7253 17.4623C39.7553 17.476 39.762 17.5123 39.7557 17.5403C39.197 20.0045 40.1128 22.2736 41.9831 23.0583C43.7709 23.8087 45.9779 22.9495 47.3496 20.9692C47.3689 20.9412 47.4039 20.9176 47.4349 20.9315L49.4778 21.8507L48.4967 23.9196C46.9664 23.3321 45.2044 24.0293 44.5036 25.5321Z"></path>
<path fill="black" d="M47.2262 16.885C50.1524 16.885 52.5333 14.5043 52.5333 11.5779V6.20367C52.5333 5.64717 52.0822 5.19604 51.5257 5.19604H46.1514C43.8178 5.19604 41.9192 7.09467 41.9192 9.42829V11.578C41.9192 14.5043 44.2999 16.885 47.2262 16.885ZM43.9344 9.42829C43.9344 8.20591 44.9289 7.21142 46.1513 7.21142H50.5179V11.578C50.5179 13.393 49.0413 14.8698 47.2262 14.8698C45.4112 14.8698 43.9344 13.393 43.9344 11.578V9.42829Z"></path>
</svg>
