<svg xmlns="http://www.w3.org/2000/svg" fill="none" viewBox="0 0 64 64" height="64" width="64">
<g clip-path="url(#clip0_2008_246)">
<path fill="white" d="M55.085 11.7513C52.889 12.5539 50.4842 12.9977 47.9623 12.9977C41.2228 12.9977 35.3153 5.99719 32.0139 1.25232H31.9859C28.6845 5.99719 22.777 12.9977 16.0375 12.9977C13.5157 12.9977 11.1109 12.5539 8.91479 11.7513V28.7499C8.91479 42.3293 16.7787 54.9533 29.7295 62.1639C31.118 62.9371 32.8817 62.9371 34.2702 62.1639C47.221 54.9534 55.085 42.3294 55.085 28.7499V11.7513Z"></path>
<path fill="#FF7C96" d="M42.6032 28.1325H35.8655V21.3947H28.1342V28.1325H21.3965V35.8637H28.1342V42.6014H35.8655V35.8637H42.6032V28.1325Z"></path>
<path fill="black" d="M48.448 39.9186C49.0824 39.6466 49.3762 38.9118 49.1042 38.2774C48.8322 37.643 48.0974 37.3491 47.463 37.6211C46.8285 37.8931 46.5347 38.628 46.8067 39.2624C47.0787 39.8968 47.8135 40.1906 48.448 39.9186Z"></path>
<path fill="black" d="M55.8027 10.7251C55.4675 10.4908 55.0392 10.4349 54.6552 10.5751C52.5306 11.3516 50.2789 11.7454 47.9625 11.7454C44.7133 11.7454 39.4875 9.80087 33.0421 0.537125C32.8078 0.200625 32.4238 0 32.014 0H31.986C31.5761 0 31.1921 0.200625 30.958 0.537125C24.5126 9.80087 19.2867 11.7454 16.0376 11.7454C13.7212 11.7454 11.4695 11.3516 9.34485 10.5751C8.96085 10.4349 8.53235 10.4908 8.19735 10.7251C7.86222 10.9595 7.6626 11.3426 7.6626 11.7515V28.75C7.6626 35.6471 9.64747 42.4791 13.4027 48.5075C17.146 54.5166 22.5811 59.6174 29.1203 63.2581C30.0086 63.7529 31.0041 64 32 64C32.9956 64 33.9916 63.7528 34.8795 63.2583C41.4188 59.6174 46.8539 54.5166 50.5972 48.5075C54.3525 42.4791 56.3375 35.6471 56.3375 28.75V11.7515C56.3375 11.3425 56.1378 10.9594 55.8027 10.7251ZM53.8327 28.75C53.8327 35.1785 51.9787 41.5526 48.4713 47.1831C44.9518 52.8329 39.8306 57.6349 33.6612 61.0698C32.6521 61.6316 31.348 61.6315 30.339 61.0698C24.1695 57.6349 19.0483 52.833 15.5288 47.1831C12.0212 41.5526 10.1672 35.1785 10.1672 28.75V13.4656C12.0613 13.9867 14.029 14.2502 16.0376 14.2502C22.4281 14.2502 28.0965 8.63263 31.9996 3.37913C33.935 5.98825 35.9095 8.162 37.8835 9.85513C41.2837 12.7715 44.6747 14.2502 47.9623 14.2502C49.971 14.2502 51.9385 13.9867 53.8327 13.4656V28.75Z"></path>
<path fill="black" d="M37.1179 42.6015V37.116H42.6034C43.295 37.116 43.8558 36.5552 43.8558 35.8636V28.1325C43.8558 27.4408 43.295 26.8801 42.6034 26.8801H37.1179V21.3946C37.1179 20.703 36.5572 20.1422 35.8655 20.1422H28.1343C27.4427 20.1422 26.8819 20.703 26.8819 21.3946V26.8801H21.3964C20.7048 26.8801 20.144 27.4408 20.144 28.1325V35.8636C20.144 36.5552 20.7048 37.116 21.3964 37.116H26.8819V42.6015C26.8819 43.2931 27.4427 43.8538 28.1343 43.8538H35.8655C36.5572 43.8538 37.1179 43.2932 37.1179 42.6015ZM34.6132 35.8636V41.3491H29.3867V35.8636C29.3867 35.172 28.8259 34.6112 28.1343 34.6112H22.6488V29.385H28.1343C28.8259 29.385 29.3867 28.8242 29.3867 28.1326V22.6471H34.6132V28.1326C34.6132 28.8242 35.1739 29.385 35.8655 29.385H41.351V34.6113H35.8655C35.1738 34.6112 34.6132 35.172 34.6132 35.8636Z"></path>
<path fill="black" d="M46.4236 42.8397C45.794 42.554 45.0516 42.8329 44.7658 43.4627C42.716 47.9801 39.3015 51.9164 34.8915 54.8457C34.3696 55.1924 34.1831 55.8966 34.4675 56.4556C34.8024 57.1139 35.6609 57.3417 36.2775 56.9321C41.0789 53.7427 44.8029 49.443 47.0468 44.4976C47.3325 43.8677 47.0535 43.1255 46.4236 42.8397Z"></path>
</g>
<defs>
<clipPath id="clip0_2008_246">
<rect fill="white" height="64" width="64"></rect>
</clipPath>
</defs>
</svg>
