<svg xmlns="http://www.w3.org/2000/svg" fill="none" viewBox="0 0 64 64" height="64" width="64">
<g clip-path="url(#clip0_2008_157)">
<path fill="#F6E266" d="M10.0354 18.2434L15.5712 23.7791C19.7757 19.5746 25.584 16.9741 31.9999 16.9741V9.14539C23.4223 9.14539 15.6567 12.6221 10.0354 18.2434Z"></path>
<path fill="#E49542" d="M53.9645 18.2434L48.4287 23.7791C44.2242 19.5746 38.4159 16.9741 32 16.9741V9.14539C40.5776 9.14539 48.3433 12.6221 53.9645 18.2434Z"></path>
<path fill="#C8EA73" d="M53.9625 18.2454L48.4287 23.7791C52.6332 27.9836 55.2337 33.792 55.2337 40.2079H63.0625C63.0625 31.6302 59.5837 23.8665 53.9625 18.2454Z"></path>
<path fill="#B7E445" d="M56.6874 21.3608C56.7746 22.1116 56.8216 22.8712 56.8216 23.6393C56.8216 27.13 55.9031 30.4551 54.2427 33.4788C54.8862 35.609 55.2337 37.8676 55.2337 40.2077H63.0624C63.0624 33.1192 60.6849 26.5878 56.6874 21.3608Z"></path>
<path fill="#DD5790" d="M10.0375 18.2454L15.5712 23.7791C11.3667 27.9836 8.76625 33.792 8.76625 40.2079H0.9375C0.9375 31.6302 4.41625 23.8665 10.0375 18.2454Z"></path>
<path fill="#C1032F" d="M35.9285 44.1365L56.8215 15.3862L28.0713 36.2792L35.9285 44.1365Z"></path>
<path fill="#F1D0A5" d="M32 40.2079C35.4869 40.2079 38.3135 37.3813 38.3135 33.8944C38.3135 30.4076 35.4869 27.5809 32 27.5809C28.5132 27.5809 25.6865 30.4076 25.6865 33.8944C25.6865 37.3813 28.5132 40.2079 32 40.2079Z"></path>
<path fill="#F1B986" d="M35.1404 28.4182C35.6721 29.3433 35.9777 30.4148 35.9777 31.5585C35.9777 35.0453 33.1511 37.872 29.6642 37.872C28.5206 37.872 27.4491 37.5663 26.5239 37.0347C27.6133 38.9303 29.6569 40.208 32.0002 40.208C35.4871 40.208 38.3137 37.3813 38.3137 33.8945C38.3137 31.5512 37.0361 29.5076 35.1404 28.4182Z"></path>
<path fill="#9DC6FB" d="M21.3933 45.2586V50.8145H42.6067V45.2586C42.6067 42.4691 40.3453 40.2079 37.5559 40.2079H26.4442C23.6547 40.2079 21.3933 42.4693 21.3933 45.2586Z"></path>
<path fill="#80B4FB" d="M37.5559 40.2079H34.5254C37.3149 40.2079 39.5761 42.4693 39.5761 45.2586V50.8145H42.6066V45.2586C42.6068 42.4693 40.3454 40.2079 37.5559 40.2079Z"></path>
<path fill="#4073C8" d="M21.3933 54.8552H42.6067V58.8958H21.3933V54.8552Z"></path>
<path fill="black" d="M54.2962 40.2079C54.2962 40.7257 54.716 41.1454 55.2337 41.1454H63.0625C63.5802 41.1454 64 40.7257 64 40.2079C64 32.1716 61.0314 24.54 55.624 18.6287L57.5796 15.9377C57.8507 15.5647 57.8102 15.05 57.4844 14.7239C57.4845 14.7237 57.4845 14.7236 57.4846 14.7235C50.6775 7.91611 41.6269 4.16711 32 4.16711C31.4823 4.16711 31.0625 4.58674 31.0625 5.10461C31.0625 5.62249 31.4823 6.04211 32 6.04211C40.7581 6.04211 49.0118 9.31699 55.3666 15.2846L53.5819 16.5816C47.6721 11.1756 40.0395 8.20786 32 8.20786C27.1666 8.20786 22.5224 9.25861 18.1963 11.3311C17.7293 11.5547 17.5321 12.1147 17.7558 12.5816C17.9795 13.0485 18.5395 13.2459 19.0063 13.022C22.7971 11.206 26.8486 10.2246 31.0625 10.0979V16.056C28.1306 16.1669 25.2849 16.797 22.5911 17.9367C20.0004 19.0322 17.6481 20.555 15.585 22.4669L11.372 18.2539C12.6001 17.0997 13.9239 16.0474 15.3191 15.1196C15.7502 14.833 15.8674 14.251 15.5806 13.8199C15.294 13.3889 14.712 13.2715 14.2809 13.5584C12.5236 14.7269 10.872 16.0799 9.372 17.5799C9.35275 17.5991 9.33438 17.6192 9.317 17.64C3.30813 23.6787 0 31.69 0 40.2079C0 40.7257 0.41975 41.1454 0.9375 41.1454H8.76625C9.284 41.1454 9.70375 40.7257 9.70375 40.2079C9.70375 34.2522 12.023 28.6532 16.2341 24.4421C18.2822 22.3939 20.6667 20.7864 23.3215 19.6637C26.0694 18.501 28.9893 17.9115 32 17.9115C36.8838 17.9115 41.6294 19.5192 45.4939 22.4591L36.9888 28.6397C35.6879 27.404 33.9316 26.6434 32 26.6434C28.0018 26.6434 24.749 29.8961 24.749 33.8944C24.749 36.0244 25.6725 37.9426 27.1397 39.2704H26.4441C23.1421 39.2704 20.4559 41.9567 20.4559 45.2587V50.8146C20.4559 51.3325 20.8756 51.7521 21.3934 51.7521H42.6068C43.1245 51.7521 43.5443 51.3325 43.5443 50.8146V45.2587C43.5443 42.8984 42.1711 40.8531 40.182 39.8782L44.2609 34.2651C44.5653 33.8462 44.4724 33.26 44.0536 32.9555C43.6347 32.6511 43.0484 32.744 42.744 33.1627L38.2735 39.3147C38.038 39.2865 37.7989 39.2702 37.5559 39.2702H36.8602C38.3275 37.9425 39.251 36.0242 39.251 33.8942C39.251 32.5026 38.8561 31.2019 38.1736 30.0965L52.5805 19.627L45.3154 29.6241C45.011 30.043 45.1037 30.6292 45.5226 30.9337C45.6891 31.0546 45.8819 31.113 46.073 31.113C46.3629 31.1129 46.6488 30.979 46.8321 30.7265L49.7489 26.713C50.8794 28.1975 51.8176 29.8126 52.5441 31.5294C53.7067 34.2771 54.2962 37.1971 54.2962 40.2079ZM7.84637 39.2704H1.88925C2.1135 31.889 4.98525 24.963 10.0487 19.5825L14.259 23.7927C10.3177 28.0444 8.06575 33.4771 7.84637 39.2704ZM32.9375 16.0559V10.0989C40.0319 10.3159 46.7401 12.9914 52.03 17.7092L47.072 21.3122C43.0484 18.1002 38.0869 16.2561 32.9375 16.0559ZM37.5559 41.1454C39.824 41.1454 41.6691 42.9906 41.6691 45.2587V49.8771H38.2407V48.2891C38.2407 47.7712 37.821 47.3516 37.3032 47.3516C36.7855 47.3516 36.3657 47.7712 36.3657 48.2891V49.8771H27.634V48.2891C27.634 47.7712 27.2143 47.3516 26.6965 47.3516C26.1788 47.3516 25.759 47.7712 25.759 48.2891V49.8771H22.3306V45.2587C22.3306 42.9905 24.1759 41.1454 26.4439 41.1454H37.5559ZM32 39.2704C29.0356 39.2704 26.624 36.8587 26.624 33.8944C26.624 30.93 29.0356 28.5184 32 28.5184C34.9644 28.5184 37.376 30.93 37.376 33.8944C37.376 36.8587 34.9644 39.2704 32 39.2704ZM54.4964 20.1802C59.2156 25.4715 61.8935 32.1789 62.1106 39.2704H56.1535C56.0426 36.3384 55.4106 33.4927 54.2707 30.7987C53.4104 28.7655 52.2759 26.8639 50.8954 25.1354L54.4964 20.1802Z"></path>
<path fill="black" d="M42.6063 53.9177H28.6775C28.1598 53.9177 27.74 54.3373 27.74 54.8552C27.74 55.3731 28.1598 55.7927 28.6775 55.7927H41.6688V57.9577H22.3313V55.7927H24.3025C24.8203 55.7927 25.24 55.3731 25.24 54.8552C25.24 54.3373 24.8203 53.9177 24.3025 53.9177H21.3938C20.876 53.9177 20.4563 54.3373 20.4563 54.8552V58.8952C20.4563 59.4131 20.876 59.8327 21.3938 59.8327H42.6063C43.1241 59.8327 43.5438 59.4131 43.5438 58.8952V54.8552C43.5438 54.3375 43.1241 53.9177 42.6063 53.9177Z"></path>
<path fill="black" d="M63.0624 43.199H55.2336C54.7159 43.199 54.2961 43.6186 54.2961 44.1365C54.2961 44.6543 54.7159 45.074 55.2336 45.074H63.0624C63.5801 45.074 63.9999 44.6543 63.9999 44.1365C63.9999 43.6186 63.5801 43.199 63.0624 43.199Z"></path>
<path fill="black" d="M60.537 47.2396H57.759C57.2413 47.2396 56.8215 47.6592 56.8215 48.1771C56.8215 48.695 57.2413 49.1146 57.759 49.1146H60.537C61.0548 49.1146 61.4745 48.695 61.4745 48.1771C61.4745 47.6592 61.0548 47.2396 60.537 47.2396Z"></path>
<path fill="black" d="M8.76625 43.199H0.9375C0.41975 43.199 0 43.6186 0 44.1365C0 44.6543 0.41975 45.074 0.9375 45.074H8.76625C9.284 45.074 9.70375 44.6543 9.70375 44.1365C9.70375 43.6186 9.284 43.199 8.76625 43.199Z"></path>
<path fill="black" d="M6.24089 47.2396H3.46289C2.94514 47.2396 2.52539 47.6592 2.52539 48.1771C2.52539 48.695 2.94514 49.1146 3.46289 49.1146H6.24089C6.75864 49.1146 7.17839 48.695 7.17839 48.1771C7.17839 47.6592 6.75864 47.2396 6.24089 47.2396Z"></path>
</g>
<defs>
<clipPath id="clip0_2008_157">
<rect fill="white" height="64" width="64"></rect>
</clipPath>
</defs>
</svg>
