<svg width="33" height="32" viewBox="0 0 33 32" fill="none" xmlns="http://www.w3.org/2000/svg">
<g clip-path="url(#clip0_365_739)">
<path d="M16.4815 0.00146484C15.9079 0.00146484 15.3347 0.0323004 14.7644 0.0937712C14.2417 0.147166 13.7253 0.234734 13.2159 0.340989C13.1174 0.361613 13.0187 0.383372 12.9201 0.406131C9.91887 1.08945 7.17838 2.62395 5.02731 4.82562C4.82728 5.03066 4.63145 5.24177 4.43996 5.45889C-1.37073 12.1298 -0.673395 22.2481 5.99756 28.0588C12.3841 33.6218 21.9975 33.2516 27.9374 27.2141C28.1379 27.009 28.3336 26.7979 28.5248 26.5808C31.0891 23.6605 32.5023 19.9063 32.5 16.0199C32.5 7.17306 25.3283 0.0013981 16.4815 0.00146484ZM5.73906 5.62655C5.82342 5.53898 5.91099 5.45515 5.99696 5.37025C6.09627 5.27254 6.19505 5.17429 6.2965 5.07978C6.38567 4.99649 6.47751 4.91639 6.56882 4.83523C6.67187 4.74393 6.77439 4.65262 6.88011 4.56452C6.97301 4.48603 7.06859 4.41074 7.16363 4.33492C7.27042 4.24949 7.37721 4.16406 7.48721 4.08183C7.58438 4.00868 7.68317 3.93767 7.78248 3.86825C7.89301 3.78923 8.00407 3.70807 8.11673 3.63438C8.21765 3.56604 8.31963 3.49983 8.42215 3.43415C8.53642 3.361 8.65121 3.28892 8.76708 3.22057C8.8714 3.1583 8.97639 3.09703 9.08211 3.0369C9.20031 2.96962 9.31898 2.90394 9.43825 2.83987C9.54504 2.78294 9.65183 2.72721 9.75862 2.67274C9.88036 2.61134 10.0032 2.55207 10.1265 2.49387C10.2333 2.44315 10.3444 2.39242 10.4544 2.34436C10.5798 2.29097 10.7069 2.23757 10.834 2.18418C10.9445 2.13879 11.0545 2.09448 11.1661 2.05176C11.2953 2.00264 11.4261 1.95672 11.557 1.9108C11.6686 1.87182 11.7802 1.83284 11.8933 1.796C12.0263 1.75328 12.1603 1.71377 12.2949 1.67479C12.4075 1.64222 12.5191 1.60858 12.6323 1.57815C12.6756 1.56694 12.7188 1.55786 12.7621 1.54665C11.1816 3.08128 10.0087 4.98587 9.34962 7.08796C8.08229 6.75371 6.85541 6.28157 5.691 5.67994C5.70862 5.66125 5.72357 5.64256 5.73906 5.62655ZM4.97124 6.4862C6.25385 7.18114 7.61395 7.72243 9.02338 8.09873C8.33245 10.5012 7.96976 12.9862 7.94533 15.4859H1.54329C1.65963 12.1895 2.86508 9.02466 4.97124 6.4862ZM4.97124 25.5535C2.86521 23.015 1.65976 19.8501 1.54329 16.5538H7.94533C7.96976 19.0535 8.33238 21.5385 9.02338 23.941C7.61402 24.3174 6.25392 24.8586 4.97124 25.5535ZM12.6291 30.4637C12.5213 30.4365 12.4097 30.4012 12.2986 30.3687C12.1635 30.3291 12.0279 30.2896 11.8944 30.2464C11.7818 30.2101 11.6707 30.1711 11.5596 30.1321C11.4283 30.0867 11.2969 30.0403 11.1672 29.9906C11.0561 29.9484 10.9467 29.9041 10.8367 29.8593C10.7091 29.8059 10.5814 29.7525 10.4549 29.6991C10.346 29.651 10.2376 29.6016 10.1297 29.5506C10.0053 29.4919 9.88143 29.4321 9.75595 29.3702C9.64916 29.3168 9.54237 29.2634 9.43558 29.2052C9.31491 29.1406 9.19531 29.0744 9.0757 29.006C8.96891 28.9467 8.86746 28.8859 8.76441 28.8239C8.64694 28.7535 8.53161 28.6808 8.41628 28.6066C8.31483 28.542 8.21338 28.4763 8.11353 28.4091C7.9998 28.3322 7.88713 28.2521 7.77554 28.172C7.67783 28.102 7.58011 28.0321 7.484 27.9584C7.37348 27.8751 7.26508 27.7891 7.15723 27.7026C7.06272 27.6274 6.96874 27.5526 6.87637 27.4752C6.76958 27.3866 6.66653 27.2942 6.56294 27.2023C6.47217 27.1217 6.38087 27.0422 6.29223 26.9599C6.19025 26.8649 6.09147 26.7661 5.99215 26.6684C5.90619 26.5835 5.81862 26.4997 5.73425 26.4126C5.71877 26.3961 5.70382 26.379 5.68833 26.363C6.85268 25.7611 8.07956 25.2887 9.34695 24.9544C10.0062 27.0564 11.179 28.961 12.7594 30.4957C12.7162 30.4845 12.6724 30.4754 12.6291 30.4637ZM15.9476 30.9282C13.6629 30.6036 11.66 28.219 10.3999 24.6976C12.2217 24.2896 14.0809 24.0708 15.9476 24.0446V30.9282ZM15.9476 22.9767C13.9673 23.0027 11.9954 23.2379 10.0646 23.6783C9.39414 21.3618 9.04046 18.9652 9.01323 16.5538H15.9476V22.9767ZM15.9476 15.4859H9.01323C9.0404 13.0745 9.39407 10.6779 10.0646 8.36143C11.9954 8.80174 13.9674 9.03694 15.9476 9.06304V15.4859ZM15.9476 7.99514C14.0808 7.96911 12.2217 7.75026 10.3999 7.34212C11.66 3.82073 13.6629 1.43612 15.9476 1.11148V7.99514ZM27.9919 6.4862C30.0979 9.02473 31.3034 12.1896 31.4198 15.4859H25.0178C24.9934 12.9862 24.6308 10.5012 23.9398 8.09873C25.3491 7.72223 26.7092 7.181 27.9919 6.4862ZM20.3297 1.57548C20.4419 1.60324 20.5535 1.63848 20.6645 1.67106C20.7996 1.71057 20.9352 1.75008 21.0687 1.79333C21.1814 1.82964 21.2924 1.86862 21.4035 1.90759C21.5349 1.95298 21.6662 1.99943 21.796 2.04909C21.907 2.09127 22.0165 2.13559 22.1265 2.18044C22.2541 2.23384 22.3817 2.28723 22.5082 2.34063C22.6172 2.38868 22.7256 2.43814 22.8334 2.48906C22.9578 2.5478 23.0817 2.6076 23.2072 2.66954C23.314 2.72293 23.4208 2.77633 23.5276 2.83453C23.6482 2.89914 23.7678 2.96535 23.8874 3.03369C23.9942 3.09296 24.0957 3.15383 24.1987 3.21577C24.3162 3.28625 24.4315 3.35887 24.5469 3.43309C24.6483 3.49769 24.7498 3.56337 24.8496 3.63065C24.9633 3.70754 25.0755 3.78709 25.1871 3.86719C25.2853 3.93713 25.383 4.00761 25.4797 4.08076C25.5897 4.16353 25.6975 4.24949 25.8059 4.33599C25.8999 4.41074 25.9944 4.4855 26.0868 4.56345C26.1936 4.65209 26.2966 4.74446 26.4002 4.8363C26.491 4.91693 26.5823 4.99649 26.6709 5.07871C26.7729 5.17376 26.8717 5.27254 26.971 5.37025C27.057 5.45515 27.1445 5.53898 27.2289 5.62601C27.2444 5.64256 27.2593 5.65965 27.2748 5.67567C26.1105 6.27756 24.8836 6.74991 23.6162 7.08423C22.9557 4.98194 21.7813 3.07754 20.1995 1.54344C20.2427 1.55465 20.2865 1.56373 20.3297 1.57548ZM17.0155 1.11148C19.3003 1.43612 21.3031 3.82073 22.5632 7.34212C20.7414 7.75006 18.8823 7.96891 17.0155 7.99514V1.11148ZM17.0155 9.06304C18.9958 9.03701 20.9677 8.8018 22.8986 8.36143C23.569 10.6779 23.9227 13.0745 23.9499 15.4859H17.0155V9.06304ZM17.0155 16.5538H23.9499C23.9227 18.9652 23.5691 21.3618 22.8986 23.6783C20.9677 23.238 18.9958 23.0028 17.0155 22.9767V16.5538ZM17.0155 30.9282V24.0446C18.8823 24.0706 20.7414 24.2894 22.5632 24.6976C21.3031 28.219 19.3003 30.6036 17.0155 30.9282ZM27.2241 26.4132C27.1397 26.5002 27.0527 26.584 26.9667 26.6689C26.8674 26.7666 26.7681 26.8654 26.6661 26.9605C26.5775 27.0432 26.4862 27.1206 26.3954 27.2034C26.2918 27.2952 26.1888 27.3871 26.083 27.4757C25.9896 27.5537 25.8945 27.629 25.7995 27.7048C25.6927 27.7902 25.5859 27.8756 25.4759 27.9579C25.3788 28.031 25.28 28.102 25.1807 28.1715C25.0701 28.2505 24.9591 28.3316 24.8464 28.4053C24.7455 28.4737 24.6435 28.5399 24.541 28.605C24.4267 28.6787 24.3116 28.7499 24.1955 28.8186C24.0887 28.8811 23.9867 28.9419 23.8816 29.0023C23.7634 29.0696 23.6445 29.1352 23.5249 29.1993C23.4181 29.2562 23.3113 29.312 23.2045 29.3664C23.0828 29.4278 22.96 29.4871 22.8366 29.5453C22.7298 29.596 22.6188 29.6468 22.5088 29.6948C22.3833 29.7482 22.2562 29.8016 22.1291 29.855C22.0186 29.8998 21.9086 29.9447 21.7976 29.9869C21.6673 30.0365 21.5365 30.083 21.4051 30.1284C21.294 30.1674 21.183 30.2063 21.0703 30.2426C20.9368 30.2859 20.8033 30.3254 20.6672 30.3644C20.5556 30.3975 20.4435 30.4306 20.3308 30.461C20.2876 30.4722 20.2443 30.4813 20.2011 30.4925C21.7815 28.9579 22.9544 27.0533 23.6135 24.9512C24.8808 25.2855 26.1077 25.7576 27.2721 26.3592C27.2545 26.3785 27.2396 26.3971 27.2241 26.4132ZM27.9919 25.5535C26.7093 24.8586 25.3492 24.3173 23.9398 23.941C24.6307 21.5385 24.9934 19.0535 25.0178 16.5538H31.4198C31.3036 19.8501 30.0981 23.015 27.9919 25.5535Z" fill="white"/>
</g>
<defs>
<clipPath id="clip0_365_739">
<rect width="32" height="32" fill="white" transform="translate(0.5)"/>
</clipPath>
</defs>
</svg>
